<mxfile host="app.diagrams.net" modified="2020-11-27T15:41:37.684Z" agent="5.0 (Windows NT 10.0; Win64; x64) AppleWebKit/537.36 (KHTML, like Gecko) Chrome/86.0.4240.75 Safari/537.36" etag="xLAxuQOhPwJqXnlsJA2_" version="13.10.4" type="github">
  <diagram id="C5RBs43oDa-KdzZeNtuy" name="Page-1">
    <mxGraphModel dx="1440" dy="954" grid="1" gridSize="10" guides="1" tooltips="1" connect="1" arrows="1" fold="1" page="1" pageScale="1" pageWidth="827" pageHeight="1169" math="0" shadow="0">
      <root>
        <mxCell id="WIyWlLk6GJQsqaUBKTNV-0" />
        <mxCell id="WIyWlLk6GJQsqaUBKTNV-1" parent="WIyWlLk6GJQsqaUBKTNV-0" />
        <mxCell id="WIyWlLk6GJQsqaUBKTNV-3" value="Basket ready to finalize." style="rounded=1;whiteSpace=wrap;html=1;fontSize=12;glass=0;strokeWidth=1;shadow=0;" parent="WIyWlLk6GJQsqaUBKTNV-1" vertex="1">
          <mxGeometry x="329" y="20" width="120" height="40" as="geometry" />
        </mxCell>
        <mxCell id="WIyWlLk6GJQsqaUBKTNV-6" value="Finalize Basket &lt;br&gt;successful?" style="rhombus;whiteSpace=wrap;html=1;shadow=0;fontFamily=Helvetica;fontSize=12;align=center;strokeWidth=1;spacing=6;spacingTop=-4;" parent="WIyWlLk6GJQsqaUBKTNV-1" vertex="1">
          <mxGeometry x="179" y="560" width="140" height="90" as="geometry" />
        </mxCell>
        <mxCell id="WIyWlLk6GJQsqaUBKTNV-11" value="Redirect to Success Page" style="rounded=1;whiteSpace=wrap;html=1;fontSize=12;glass=0;strokeWidth=1;shadow=0;" parent="WIyWlLk6GJQsqaUBKTNV-1" vertex="1">
          <mxGeometry x="189" y="710" width="120" height="40" as="geometry" />
        </mxCell>
        <mxCell id="SuKsgBhXOw_TqzZO0JG3-0" value="Finalize Basket clicked?" style="rhombus;whiteSpace=wrap;html=1;" vertex="1" parent="WIyWlLk6GJQsqaUBKTNV-1">
          <mxGeometry x="329" y="100" width="120" height="120" as="geometry" />
        </mxCell>
        <mxCell id="SuKsgBhXOw_TqzZO0JG3-1" value="" style="rounded=0;html=1;jettySize=auto;orthogonalLoop=1;fontSize=11;endArrow=block;endFill=0;endSize=8;strokeWidth=1;shadow=0;labelBackgroundColor=none;edgeStyle=orthogonalEdgeStyle;" edge="1" parent="WIyWlLk6GJQsqaUBKTNV-1" source="WIyWlLk6GJQsqaUBKTNV-3" target="SuKsgBhXOw_TqzZO0JG3-0">
          <mxGeometry relative="1" as="geometry">
            <mxPoint x="59" y="50" as="sourcePoint" />
            <mxPoint x="149" y="165" as="targetPoint" />
          </mxGeometry>
        </mxCell>
        <mxCell id="SuKsgBhXOw_TqzZO0JG3-3" value="Dead End" style="rounded=1;whiteSpace=wrap;html=1;fontSize=12;glass=0;strokeWidth=1;shadow=0;arcSize=0;" vertex="1" parent="WIyWlLk6GJQsqaUBKTNV-1">
          <mxGeometry x="599" y="140" width="80" height="40" as="geometry" />
        </mxCell>
        <mxCell id="SuKsgBhXOw_TqzZO0JG3-29" value="" style="endArrow=classic;html=1;shadow=0;labelBackgroundColor=none;strokeWidth=1;edgeStyle=orthogonalEdgeStyle;exitX=1;exitY=0.5;exitDx=0;exitDy=0;entryX=0;entryY=0.5;entryDx=0;entryDy=0;" edge="1" parent="WIyWlLk6GJQsqaUBKTNV-1" source="SuKsgBhXOw_TqzZO0JG3-0" target="SuKsgBhXOw_TqzZO0JG3-3">
          <mxGeometry relative="1" as="geometry">
            <mxPoint x="219" y="310" as="sourcePoint" />
            <mxPoint x="319" y="310" as="targetPoint" />
            <Array as="points">
              <mxPoint x="589" y="160" />
            </Array>
          </mxGeometry>
        </mxCell>
        <mxCell id="SuKsgBhXOw_TqzZO0JG3-30" value="no" style="edgeLabel;resizable=0;html=1;align=center;verticalAlign=middle;" connectable="0" vertex="1" parent="SuKsgBhXOw_TqzZO0JG3-29">
          <mxGeometry relative="1" as="geometry">
            <mxPoint y="-10" as="offset" />
          </mxGeometry>
        </mxCell>
        <mxCell id="SuKsgBhXOw_TqzZO0JG3-33" value="" style="endArrow=classic;html=1;shadow=0;labelBackgroundColor=none;strokeWidth=1;exitX=0.5;exitY=1;exitDx=0;exitDy=0;entryX=0.5;entryY=0;entryDx=0;entryDy=0;" edge="1" parent="WIyWlLk6GJQsqaUBKTNV-1" source="SuKsgBhXOw_TqzZO0JG3-0" target="SuKsgBhXOw_TqzZO0JG3-45">
          <mxGeometry relative="1" as="geometry">
            <mxPoint x="69" y="250" as="sourcePoint" />
            <mxPoint x="319" y="310" as="targetPoint" />
          </mxGeometry>
        </mxCell>
        <mxCell id="SuKsgBhXOw_TqzZO0JG3-34" value="yes" style="edgeLabel;resizable=0;html=1;align=center;verticalAlign=middle;" connectable="0" vertex="1" parent="SuKsgBhXOw_TqzZO0JG3-33">
          <mxGeometry relative="1" as="geometry" />
        </mxCell>
        <mxCell id="SuKsgBhXOw_TqzZO0JG3-35" value="" style="endArrow=classic;html=1;shadow=0;labelBackgroundColor=none;strokeWidth=1;entryX=0.5;entryY=0;entryDx=0;entryDy=0;exitX=0.5;exitY=1;exitDx=0;exitDy=0;" edge="1" parent="WIyWlLk6GJQsqaUBKTNV-1" source="WIyWlLk6GJQsqaUBKTNV-6" target="WIyWlLk6GJQsqaUBKTNV-11">
          <mxGeometry relative="1" as="geometry">
            <mxPoint x="109" y="715" as="sourcePoint" />
            <mxPoint x="199" y="710" as="targetPoint" />
          </mxGeometry>
        </mxCell>
        <mxCell id="SuKsgBhXOw_TqzZO0JG3-36" value="yes" style="edgeLabel;resizable=0;html=1;align=center;verticalAlign=middle;" connectable="0" vertex="1" parent="SuKsgBhXOw_TqzZO0JG3-35">
          <mxGeometry relative="1" as="geometry" />
        </mxCell>
        <mxCell id="SuKsgBhXOw_TqzZO0JG3-43" value="Select Printer &lt;br&gt;Type" style="rhombus;whiteSpace=wrap;html=1;" vertex="1" parent="WIyWlLk6GJQsqaUBKTNV-1">
          <mxGeometry x="334" y="420" width="110" height="110" as="geometry" />
        </mxCell>
        <mxCell id="SuKsgBhXOw_TqzZO0JG3-49" style="edgeStyle=orthogonalEdgeStyle;rounded=0;orthogonalLoop=1;jettySize=auto;html=1;exitX=0.5;exitY=1;exitDx=0;exitDy=0;entryX=0.5;entryY=0;entryDx=0;entryDy=0;shadow=0;labelBackgroundColor=none;endArrow=block;endFill=0;endSize=8;strokeWidth=1;" edge="1" parent="WIyWlLk6GJQsqaUBKTNV-1" source="SuKsgBhXOw_TqzZO0JG3-45" target="SuKsgBhXOw_TqzZO0JG3-43">
          <mxGeometry relative="1" as="geometry" />
        </mxCell>
        <mxCell id="SuKsgBhXOw_TqzZO0JG3-45" value="Open printer modal" style="whiteSpace=wrap;html=1;aspect=fixed;" vertex="1" parent="WIyWlLk6GJQsqaUBKTNV-1">
          <mxGeometry x="349" y="280" width="80" height="80" as="geometry" />
        </mxCell>
        <mxCell id="SuKsgBhXOw_TqzZO0JG3-47" value="" style="endArrow=classic;html=1;shadow=0;labelBackgroundColor=none;strokeWidth=1;exitX=0;exitY=0.5;exitDx=0;exitDy=0;edgeStyle=orthogonalEdgeStyle;rounded=0;entryX=0.5;entryY=0;entryDx=0;entryDy=0;" edge="1" parent="WIyWlLk6GJQsqaUBKTNV-1" source="SuKsgBhXOw_TqzZO0JG3-43" target="WIyWlLk6GJQsqaUBKTNV-6">
          <mxGeometry relative="1" as="geometry">
            <mxPoint x="459" y="410" as="sourcePoint" />
            <mxPoint x="199" y="600" as="targetPoint" />
            <Array as="points">
              <mxPoint x="249" y="475" />
            </Array>
          </mxGeometry>
        </mxCell>
        <mxCell id="SuKsgBhXOw_TqzZO0JG3-48" value="local printer" style="edgeLabel;resizable=0;html=1;align=center;verticalAlign=middle;" connectable="0" vertex="1" parent="SuKsgBhXOw_TqzZO0JG3-47">
          <mxGeometry relative="1" as="geometry">
            <mxPoint x="50" y="25" as="offset" />
          </mxGeometry>
        </mxCell>
        <mxCell id="SuKsgBhXOw_TqzZO0JG3-50" value="" style="endArrow=classic;html=1;shadow=0;labelBackgroundColor=none;strokeWidth=1;exitX=1;exitY=0.5;exitDx=0;exitDy=0;edgeStyle=orthogonalEdgeStyle;rounded=0;entryX=0.5;entryY=0;entryDx=0;entryDy=0;" edge="1" parent="WIyWlLk6GJQsqaUBKTNV-1" source="SuKsgBhXOw_TqzZO0JG3-43" target="SuKsgBhXOw_TqzZO0JG3-53">
          <mxGeometry relative="1" as="geometry">
            <mxPoint x="469" y="510" as="sourcePoint" />
            <mxPoint x="519" y="600" as="targetPoint" />
            <Array as="points">
              <mxPoint x="519" y="475" />
            </Array>
          </mxGeometry>
        </mxCell>
        <mxCell id="SuKsgBhXOw_TqzZO0JG3-51" value="network printer" style="edgeLabel;resizable=0;html=1;align=center;verticalAlign=middle;" connectable="0" vertex="1" parent="SuKsgBhXOw_TqzZO0JG3-50">
          <mxGeometry relative="1" as="geometry">
            <mxPoint x="-50" y="20" as="offset" />
          </mxGeometry>
        </mxCell>
        <mxCell id="SuKsgBhXOw_TqzZO0JG3-53" value="Finalize Basket &lt;br&gt;successful?" style="rhombus;whiteSpace=wrap;html=1;shadow=0;fontFamily=Helvetica;fontSize=12;align=center;strokeWidth=1;spacing=6;spacingTop=-4;" vertex="1" parent="WIyWlLk6GJQsqaUBKTNV-1">
          <mxGeometry x="449" y="560" width="140" height="100" as="geometry" />
        </mxCell>
        <mxCell id="SuKsgBhXOw_TqzZO0JG3-54" value="Printing successful?" style="rhombus;whiteSpace=wrap;html=1;shadow=0;fontFamily=Helvetica;fontSize=12;align=center;strokeWidth=1;spacing=6;spacingTop=-4;" vertex="1" parent="WIyWlLk6GJQsqaUBKTNV-1">
          <mxGeometry x="469" y="710" width="100" height="80" as="geometry" />
        </mxCell>
        <mxCell id="SuKsgBhXOw_TqzZO0JG3-55" value="Redirect to Success Page" style="rounded=1;whiteSpace=wrap;html=1;fontSize=12;glass=0;strokeWidth=1;shadow=0;" vertex="1" parent="WIyWlLk6GJQsqaUBKTNV-1">
          <mxGeometry x="459" y="830" width="120" height="40" as="geometry" />
        </mxCell>
        <mxCell id="SuKsgBhXOw_TqzZO0JG3-56" value="" style="endArrow=classic;html=1;shadow=0;labelBackgroundColor=none;strokeWidth=1;entryX=0.5;entryY=0;entryDx=0;entryDy=0;exitX=0.5;exitY=1;exitDx=0;exitDy=0;" edge="1" parent="WIyWlLk6GJQsqaUBKTNV-1" source="SuKsgBhXOw_TqzZO0JG3-53" target="SuKsgBhXOw_TqzZO0JG3-54">
          <mxGeometry relative="1" as="geometry">
            <mxPoint x="429" y="715" as="sourcePoint" />
            <mxPoint x="479" y="685" as="targetPoint" />
          </mxGeometry>
        </mxCell>
        <mxCell id="SuKsgBhXOw_TqzZO0JG3-57" value="yes" style="edgeLabel;resizable=0;html=1;align=center;verticalAlign=middle;" connectable="0" vertex="1" parent="SuKsgBhXOw_TqzZO0JG3-56">
          <mxGeometry relative="1" as="geometry" />
        </mxCell>
        <mxCell id="SuKsgBhXOw_TqzZO0JG3-58" value="" style="endArrow=classic;html=1;shadow=0;labelBackgroundColor=none;strokeWidth=1;exitX=0.5;exitY=1;exitDx=0;exitDy=0;entryX=0.5;entryY=0;entryDx=0;entryDy=0;" edge="1" parent="WIyWlLk6GJQsqaUBKTNV-1" source="SuKsgBhXOw_TqzZO0JG3-54" target="SuKsgBhXOw_TqzZO0JG3-55">
          <mxGeometry relative="1" as="geometry">
            <mxPoint x="539" y="895" as="sourcePoint" />
            <mxPoint x="639" y="895" as="targetPoint" />
          </mxGeometry>
        </mxCell>
        <mxCell id="SuKsgBhXOw_TqzZO0JG3-59" value="yes" style="edgeLabel;resizable=0;html=1;align=center;verticalAlign=middle;" connectable="0" vertex="1" parent="SuKsgBhXOw_TqzZO0JG3-58">
          <mxGeometry relative="1" as="geometry" />
        </mxCell>
        <mxCell id="SuKsgBhXOw_TqzZO0JG3-60" value="" style="endArrow=classic;html=1;shadow=0;labelBackgroundColor=none;strokeWidth=1;exitX=0;exitY=0.5;exitDx=0;exitDy=0;entryX=1;entryY=0.5;entryDx=0;entryDy=0;" edge="1" parent="WIyWlLk6GJQsqaUBKTNV-1" source="WIyWlLk6GJQsqaUBKTNV-6" target="SuKsgBhXOw_TqzZO0JG3-63">
          <mxGeometry relative="1" as="geometry">
            <mxPoint x="-1" y="640" as="sourcePoint" />
            <mxPoint x="79" y="610" as="targetPoint" />
          </mxGeometry>
        </mxCell>
        <mxCell id="SuKsgBhXOw_TqzZO0JG3-61" value="no" style="edgeLabel;resizable=0;html=1;align=center;verticalAlign=middle;" connectable="0" vertex="1" parent="SuKsgBhXOw_TqzZO0JG3-60">
          <mxGeometry relative="1" as="geometry" />
        </mxCell>
        <mxCell id="SuKsgBhXOw_TqzZO0JG3-65" style="edgeStyle=orthogonalEdgeStyle;rounded=0;orthogonalLoop=1;jettySize=auto;html=1;exitX=0.5;exitY=0;exitDx=0;exitDy=0;entryX=0;entryY=0.5;entryDx=0;entryDy=0;shadow=0;labelBackgroundColor=none;endArrow=block;endFill=0;endSize=8;strokeWidth=1;" edge="1" parent="WIyWlLk6GJQsqaUBKTNV-1" source="SuKsgBhXOw_TqzZO0JG3-63" target="SuKsgBhXOw_TqzZO0JG3-45">
          <mxGeometry relative="1" as="geometry" />
        </mxCell>
        <mxCell id="SuKsgBhXOw_TqzZO0JG3-63" value="Show error message&amp;nbsp;" style="rounded=0;whiteSpace=wrap;html=1;" vertex="1" parent="WIyWlLk6GJQsqaUBKTNV-1">
          <mxGeometry x="9" y="575" width="120" height="60" as="geometry" />
        </mxCell>
        <mxCell id="SuKsgBhXOw_TqzZO0JG3-71" style="edgeStyle=orthogonalEdgeStyle;rounded=0;orthogonalLoop=1;jettySize=auto;html=1;entryX=1;entryY=0.5;entryDx=0;entryDy=0;shadow=0;labelBackgroundColor=none;endArrow=block;endFill=0;endSize=8;strokeWidth=1;" edge="1" parent="WIyWlLk6GJQsqaUBKTNV-1" source="SuKsgBhXOw_TqzZO0JG3-66" target="WIyWlLk6GJQsqaUBKTNV-3">
          <mxGeometry relative="1" as="geometry">
            <Array as="points">
              <mxPoint x="759" y="40" />
            </Array>
          </mxGeometry>
        </mxCell>
        <mxCell id="SuKsgBhXOw_TqzZO0JG3-66" value="Show error message&amp;nbsp;" style="rounded=0;whiteSpace=wrap;html=1;" vertex="1" parent="WIyWlLk6GJQsqaUBKTNV-1">
          <mxGeometry x="699" y="580" width="120" height="60" as="geometry" />
        </mxCell>
        <mxCell id="SuKsgBhXOw_TqzZO0JG3-69" value="" style="endArrow=classic;html=1;shadow=0;labelBackgroundColor=none;strokeWidth=1;exitX=1;exitY=0.5;exitDx=0;exitDy=0;entryX=0;entryY=0.5;entryDx=0;entryDy=0;" edge="1" parent="WIyWlLk6GJQsqaUBKTNV-1" source="SuKsgBhXOw_TqzZO0JG3-53" target="SuKsgBhXOw_TqzZO0JG3-66">
          <mxGeometry relative="1" as="geometry">
            <mxPoint x="609" y="570" as="sourcePoint" />
            <mxPoint x="709" y="570" as="targetPoint" />
          </mxGeometry>
        </mxCell>
        <mxCell id="SuKsgBhXOw_TqzZO0JG3-70" value="no" style="edgeLabel;resizable=0;html=1;align=center;verticalAlign=middle;" connectable="0" vertex="1" parent="SuKsgBhXOw_TqzZO0JG3-69">
          <mxGeometry relative="1" as="geometry" />
        </mxCell>
        <mxCell id="SuKsgBhXOw_TqzZO0JG3-72" value="" style="endArrow=classic;html=1;shadow=0;labelBackgroundColor=none;strokeWidth=1;exitX=1;exitY=0.5;exitDx=0;exitDy=0;entryX=0;entryY=0.5;entryDx=0;entryDy=0;" edge="1" parent="WIyWlLk6GJQsqaUBKTNV-1" source="SuKsgBhXOw_TqzZO0JG3-54" target="SuKsgBhXOw_TqzZO0JG3-76">
          <mxGeometry relative="1" as="geometry">
            <mxPoint x="639" y="760" as="sourcePoint" />
            <mxPoint x="679" y="750" as="targetPoint" />
          </mxGeometry>
        </mxCell>
        <mxCell id="SuKsgBhXOw_TqzZO0JG3-73" value="no" style="edgeLabel;resizable=0;html=1;align=center;verticalAlign=middle;" connectable="0" vertex="1" parent="SuKsgBhXOw_TqzZO0JG3-72">
          <mxGeometry relative="1" as="geometry" />
        </mxCell>
        <mxCell id="SuKsgBhXOw_TqzZO0JG3-77" style="edgeStyle=orthogonalEdgeStyle;rounded=0;orthogonalLoop=1;jettySize=auto;html=1;exitX=0.5;exitY=0;exitDx=0;exitDy=0;entryX=1;entryY=0.5;entryDx=0;entryDy=0;shadow=0;labelBackgroundColor=none;endArrow=block;endFill=0;endSize=8;strokeWidth=1;" edge="1" parent="WIyWlLk6GJQsqaUBKTNV-1" source="SuKsgBhXOw_TqzZO0JG3-76" target="SuKsgBhXOw_TqzZO0JG3-45">
          <mxGeometry relative="1" as="geometry" />
        </mxCell>
        <mxCell id="SuKsgBhXOw_TqzZO0JG3-76" value="Show error message&amp;nbsp;" style="rounded=0;whiteSpace=wrap;html=1;" vertex="1" parent="WIyWlLk6GJQsqaUBKTNV-1">
          <mxGeometry x="609" y="720" width="120" height="60" as="geometry" />
        </mxCell>
      </root>
    </mxGraphModel>
  </diagram>
</mxfile>
